# xmcd
#
# Track frame offsets:
#        150
#        14086
#        52698
#        84943
#
# Disc length: 1589 seconds
#
# Revision: 0
# Processed by: cddbd v1.5.1PL0 Copyright (c) Steve Scherf et al.
# Submitted via: ExactAudioCopy v0.95a5
#
DISCID=22063304
DTITLE=Lost Witness - Did I Dream (Song Of The Siren)
DYEAR=2001
DGENRE=Trance
TTITLE0=Did I Dream (Song Of The Siren) (Radio Edit)
TTITLE1=Did I Dream (Song Of The Siren) (DJ Tiesto Remix)
TTITLE2=Did I Dream (Song Of The Siren) (Minimalistix Mix)
TTITLE3=Did I Dream (Song Of The Siren) (Original 2002)
EXTD=
EXTT0=
EXTT1=
EXTT2=
EXTT3=
PLAYORDER=
